<svg id="Componente_19_5" data-name="Componente 19 – 5" xmlns="http://www.w3.org/2000/svg" width="48" height="48" viewBox="0 0 48 48">
  <g id="Trazado_183" data-name="Trazado 183" fill="none">
    <path d="M24,0A24,24,0,1,0,48,24,24,24,0,0,0,24,0Z" stroke="none"/>
    <path d="M 24 1 C 20.89458084106445 1 17.8825798034668 1.607978820800781 15.04766845703125 2.807041168212891 C 12.3089714050293 3.965419769287109 9.849151611328125 5.623939514160156 7.736549377441406 7.736549377441406 C 5.623939514160156 9.849151611328125 3.965419769287109 12.3089714050293 2.807041168212891 15.04766845703125 C 1.607978820800781 17.8825798034668 1 20.89458084106445 1 24 C 1 27.10541915893555 1.607978820800781 30.1174201965332 2.807041168212891 32.95233154296875 C 3.965419769287109 35.6910285949707 5.623939514160156 38.15084838867188 7.736549377441406 40.26345062255859 C 9.849151611328125 42.37606048583984 12.3089714050293 44.03458023071289 15.04766845703125 45.19295883178711 C 17.8825798034668 46.39202117919922 20.89458084106445 47 24 47 C 27.10541915893555 47 30.1174201965332 46.39202117919922 32.95233154296875 45.19295883178711 C 35.6910285949707 44.03458023071289 38.15084838867188 42.37606048583984 40.26345062255859 40.26345062255859 C 42.37606048583984 38.15084838867188 44.03458023071289 35.6910285949707 45.19295883178711 32.95233154296875 C 46.39202117919922 30.1174201965332 47 27.10541915893555 47 24 C 47 20.89458084106445 46.39202117919922 17.8825798034668 45.19295883178711 15.04766845703125 C 44.03458023071289 12.3089714050293 42.37606048583984 9.849151611328125 40.26345062255859 7.736549377441406 C 38.15084838867188 5.623939514160156 35.6910285949707 3.965419769287109 32.95233154296875 2.807041168212891 C 30.1174201965332 1.607978820800781 27.10541915893555 1 24 1 M 24 0 C 37.25482940673828 0 48 10.74517059326172 48 24 C 48 37.25482940673828 37.25482940673828 48 24 48 C 10.74517059326172 48 0 37.25482940673828 0 24 C 0 10.74517059326172 10.74517059326172 0 24 0 Z" stroke="none" fill="#63ddff"/>
  </g>
  <path id="Icon_ionic-ios-arrow-round-back" data-name="Icon ionic-ios-arrow-round-back" d="M12.229,11.4a.545.545,0,0,1,0,.767L9.7,14.71h9.641a.542.542,0,0,1,0,1.084H9.7l2.534,2.538a.549.549,0,0,1,0,.767.54.54,0,0,1-.763,0l-3.435-3.46h0a.609.609,0,0,1-.113-.171.517.517,0,0,1-.042-.208.543.543,0,0,1,.154-.379l3.435-3.46A.531.531,0,0,1,12.229,11.4Z" transform="translate(10.118 8.748)" fill="#63ddff"/>
</svg>
