<svg xmlns="http://www.w3.org/2000/svg" width="48" height="48" viewBox="0 0 48 48">
  <defs>
    <style>
      .cls-1, .cls-4 {
        fill: #63ddff;
      }

      .cls-2 {
        fill: #fff;
      }

      .cls-3, .cls-4 {
        stroke: none;
      }
    </style>
  </defs>
  <g id="Grupo_391" data-name="Grupo 391" transform="translate(-3664 -10006)">
    <g id="Trazado_183" data-name="Trazado 183" class="cls-1" transform="translate(3664 10006)">
      <path class="cls-3" d="M 24 47.5 C 20.82729911804199 47.5 17.74976921081543 46.87873077392578 14.85289001464844 45.65346145629883 C 12.05459022521973 44.46987915039063 9.541350364685059 42.77537155151367 7.382989883422852 40.61700820922852 C 5.224629878997803 38.45864868164063 3.530119895935059 35.94541168212891 2.346539974212646 33.14710998535156 C 1.121269941329956 30.25023078918457 0.5 27.17270088195801 0.5 24 C 0.5 20.82729911804199 1.121269941329956 17.74976921081543 2.346539974212646 14.85289001464844 C 3.530119895935059 12.05459022521973 5.224629878997803 9.541350364685059 7.382989883422852 7.382989883422852 C 9.541350364685059 5.224629878997803 12.05459022521973 3.530119895935059 14.85289001464844 2.346539974212646 C 17.74976921081543 1.121269941329956 20.82729911804199 0.5 24 0.5 C 27.17270088195801 0.5 30.25023078918457 1.121269941329956 33.14710998535156 2.346539974212646 C 35.94541168212891 3.530119895935059 38.45864868164063 5.224629878997803 40.61700820922852 7.382989883422852 C 42.77537155151367 9.541350364685059 44.46987915039063 12.05459022521973 45.65346145629883 14.85289001464844 C 46.87873077392578 17.74976921081543 47.5 20.82729911804199 47.5 24 C 47.5 27.17270088195801 46.87873077392578 30.25023078918457 45.65346145629883 33.14710998535156 C 44.46987915039063 35.94541168212891 42.77537155151367 38.45864868164063 40.61700820922852 40.61700820922852 C 38.45864868164063 42.77537155151367 35.94541168212891 44.46987915039063 33.14710998535156 45.65346145629883 C 30.25023078918457 46.87873077392578 27.17270088195801 47.5 24 47.5 Z"/>
      <path class="cls-4" d="M 24 1 C 20.89458084106445 1 17.8825798034668 1.607978820800781 15.04766845703125 2.807041168212891 C 12.3089714050293 3.965419769287109 9.849151611328125 5.623939514160156 7.736549377441406 7.736549377441406 C 5.623939514160156 9.849151611328125 3.965419769287109 12.3089714050293 2.807041168212891 15.04766845703125 C 1.607978820800781 17.8825798034668 1 20.89458084106445 1 24 C 1 27.10541915893555 1.607978820800781 30.1174201965332 2.807041168212891 32.95233154296875 C 3.965419769287109 35.6910285949707 5.623939514160156 38.15084838867188 7.736549377441406 40.26345062255859 C 9.849151611328125 42.37606048583984 12.3089714050293 44.03458023071289 15.04766845703125 45.19295883178711 C 17.8825798034668 46.39202117919922 20.89458084106445 47 24 47 C 27.10541915893555 47 30.1174201965332 46.39202117919922 32.95233154296875 45.19295883178711 C 35.6910285949707 44.03458023071289 38.15084838867188 42.37606048583984 40.26345062255859 40.26345062255859 C 42.37606048583984 38.15084838867188 44.03458023071289 35.6910285949707 45.19295883178711 32.95233154296875 C 46.39202117919922 30.1174201965332 47 27.10541915893555 47 24 C 47 20.89458084106445 46.39202117919922 17.8825798034668 45.19295883178711 15.04766845703125 C 44.03458023071289 12.3089714050293 42.37606048583984 9.849151611328125 40.26345062255859 7.736549377441406 C 38.15084838867188 5.623939514160156 35.6910285949707 3.965419769287109 32.95233154296875 2.807041168212891 C 30.1174201965332 1.607978820800781 27.10541915893555 1 24 1 M 24 0 C 37.25482940673828 0 48 10.74517059326172 48 24 C 48 37.25482940673828 37.25482940673828 48 24 48 C 10.74517059326172 48 0 37.25482940673828 0 24 C 0 10.74517059326172 10.74517059326172 0 24 0 Z"/>
    </g>
    <path id="Icon_simple-email" data-name="Icon simple-email" class="cls-2" d="M13.662,6.108a6.825,6.825,0,0,1-.22,1.48,4.283,4.283,0,0,1-.576,1.3,3.037,3.037,0,0,1-.976.924,2.754,2.754,0,0,1-1.425.351,2.065,2.065,0,0,1-1.03-.252,1.764,1.764,0,0,1-.7-.714,2.207,2.207,0,0,1-1.867.938,1.9,1.9,0,0,1-1.63-.877,2.869,2.869,0,0,1-.405-1.015,4.379,4.379,0,0,1-.053-1.325,6.154,6.154,0,0,1,.4-1.622,4.41,4.41,0,0,1,.746-1.243,3.155,3.155,0,0,1,1.025-.792,2.861,2.861,0,0,1,1.247-.277,3.878,3.878,0,0,1,.746.064,3.053,3.053,0,0,1,.579.174,3.13,3.13,0,0,1,.48.253c.146.094.294.192.44.291l-.362,4.168a1.385,1.385,0,0,0,.011.488.683.683,0,0,0,.149.3.536.536,0,0,0,.241.157.9.9,0,0,0,.848-.167,1.808,1.808,0,0,0,.455-.579,3.728,3.728,0,0,0,.306-.87,5.969,5.969,0,0,0,.134-1.083,6.923,6.923,0,0,0-.17-2.024,4.024,4.024,0,0,0-.749-1.566A3.479,3.479,0,0,0,9.969,1.58a4.874,4.874,0,0,0-1.956-.358,4.32,4.32,0,0,0-1.935.422,4.44,4.44,0,0,0-1.47,1.169,5.612,5.612,0,0,0-.963,1.759A7.926,7.926,0,0,0,3.24,6.763,7.287,7.287,0,0,0,3.447,9a4.038,4.038,0,0,0,.817,1.6,3.409,3.409,0,0,0,1.384.963,5.31,5.31,0,0,0,1.91.319,6.543,6.543,0,0,0,1.254-.135c.207-.041.4-.091.59-.146a4.437,4.437,0,0,0,.508-.182l.262,1.179a2.91,2.91,0,0,1-.568.281,5.469,5.469,0,0,1-.671.194,6.552,6.552,0,0,1-1.4.157,7.355,7.355,0,0,1-2.557-.412A4.706,4.706,0,0,1,3.109,11.6,5.147,5.147,0,0,1,1.99,9.572a8.631,8.631,0,0,1-.313-2.809,8.567,8.567,0,0,1,.537-2.7A6.672,6.672,0,0,1,3.51,1.926,5.9,5.9,0,0,1,5.485.513,6.185,6.185,0,0,1,8.044,0a6.457,6.457,0,0,1,2.479.444,4.822,4.822,0,0,1,1.789,1.249,5.124,5.124,0,0,1,1.062,1.929A7.377,7.377,0,0,1,13.662,6.108Zm-7.1.81a2.813,2.813,0,0,0,.146,1.4.748.748,0,0,0,.719.471.8.8,0,0,0,.246-.045.879.879,0,0,0,.284-.17,1.514,1.514,0,0,0,.288-.347,2.665,2.665,0,0,0,.265-.587L8.79,4.4a1.69,1.69,0,0,0-.44-.058,1.521,1.521,0,0,0-.732.168A1.449,1.449,0,0,0,7.1,5a2.894,2.894,0,0,0-.344.81,6.874,6.874,0,0,0-.2,1.108Z" transform="translate(3680.33 10023)"/>
  </g>
</svg>
