<svg xmlns="http://www.w3.org/2000/svg" width="48" height="48" viewBox="0 0 48 48">
  <defs>
    <style>
      .cls-1, .cls-4 {
        fill: #00abe0;
      }

      .cls-2 {
        fill: #fff;
      }

      .cls-3, .cls-4 {
        stroke: none;
      }
    </style>
  </defs>
  <g id="instagram" transform="translate(-4760 -9421)">
    <g id="Trazado_190" data-name="Trazado 190" class="cls-1" transform="translate(4760 9421)">
      <path class="cls-3" d="M 24 47.5 C 20.82729911804199 47.5 17.74976921081543 46.87873077392578 14.85289001464844 45.65346145629883 C 12.05459022521973 44.46987915039063 9.541350364685059 42.77537155151367 7.382989883422852 40.61700820922852 C 5.224629878997803 38.45864868164063 3.530119895935059 35.94541168212891 2.346539974212646 33.14710998535156 C 1.121269941329956 30.25023078918457 0.5 27.17270088195801 0.5 24 C 0.5 20.82729911804199 1.121269941329956 17.74976921081543 2.346539974212646 14.85289001464844 C 3.530119895935059 12.05459022521973 5.224629878997803 9.541350364685059 7.382989883422852 7.382989883422852 C 9.541350364685059 5.224629878997803 12.05459022521973 3.530119895935059 14.85289001464844 2.346539974212646 C 17.74976921081543 1.121269941329956 20.82729911804199 0.5 24 0.5 C 27.17270088195801 0.5 30.25023078918457 1.121269941329956 33.14710998535156 2.346539974212646 C 35.94541168212891 3.530119895935059 38.45864868164063 5.224629878997803 40.61700820922852 7.382989883422852 C 42.77537155151367 9.541350364685059 44.46987915039063 12.05459022521973 45.65346145629883 14.85289001464844 C 46.87873077392578 17.74976921081543 47.5 20.82729911804199 47.5 24 C 47.5 27.17270088195801 46.87873077392578 30.25023078918457 45.65346145629883 33.14710998535156 C 44.46987915039063 35.94541168212891 42.77537155151367 38.45864868164063 40.61700820922852 40.61700820922852 C 38.45864868164063 42.77537155151367 35.94541168212891 44.46987915039063 33.14710998535156 45.65346145629883 C 30.25023078918457 46.87873077392578 27.17270088195801 47.5 24 47.5 Z"/>
      <path class="cls-4" d="M 24 1 C 20.89458084106445 1 17.8825798034668 1.607978820800781 15.04766845703125 2.807041168212891 C 12.3089714050293 3.965419769287109 9.849151611328125 5.623939514160156 7.736549377441406 7.736549377441406 C 5.623939514160156 9.849151611328125 3.965419769287109 12.3089714050293 2.807041168212891 15.04766845703125 C 1.607978820800781 17.8825798034668 1 20.89458084106445 1 24 C 1 27.10541915893555 1.607978820800781 30.1174201965332 2.807041168212891 32.95233154296875 C 3.965419769287109 35.6910285949707 5.623939514160156 38.15084838867188 7.736549377441406 40.26345062255859 C 9.849151611328125 42.37606048583984 12.3089714050293 44.03458023071289 15.04766845703125 45.19295883178711 C 17.8825798034668 46.39202117919922 20.89458084106445 47 24 47 C 27.10541915893555 47 30.1174201965332 46.39202117919922 32.95233154296875 45.19295883178711 C 35.6910285949707 44.03458023071289 38.15084838867188 42.37606048583984 40.26345062255859 40.26345062255859 C 42.37606048583984 38.15084838867188 44.03458023071289 35.6910285949707 45.19295883178711 32.95233154296875 C 46.39202117919922 30.1174201965332 47 27.10541915893555 47 24 C 47 20.89458084106445 46.39202117919922 17.8825798034668 45.19295883178711 15.04766845703125 C 44.03458023071289 12.3089714050293 42.37606048583984 9.849151611328125 40.26345062255859 7.736549377441406 C 38.15084838867188 5.623939514160156 35.6910285949707 3.965419769287109 32.95233154296875 2.807041168212891 C 30.1174201965332 1.607978820800781 27.10541915893555 1 24 1 M 24 0 C 37.25482940673828 0 48 10.74517059326172 48 24 C 48 37.25482940673828 37.25482940673828 48 24 48 C 10.74517059326172 48 0 37.25482940673828 0 24 C 0 10.74517059326172 10.74517059326172 0 24 0 Z"/>
    </g>
    <path id="Icon_awesome-instagram" data-name="Icon awesome-instagram" class="cls-2" d="M6,5.16A3.076,3.076,0,1,0,9.072,8.236,3.071,3.071,0,0,0,6,5.16Zm0,5.076a2,2,0,1,1,2-2,2,2,0,0,1-2,2Zm3.919-5.2A.717.717,0,1,1,9.2,4.317.716.716,0,0,1,9.915,5.035Zm2.037.728a3.551,3.551,0,0,0-.969-2.514A3.574,3.574,0,0,0,8.47,2.28c-.991-.056-3.959-.056-4.95,0a3.569,3.569,0,0,0-2.514.966A3.562,3.562,0,0,0,.037,5.76c-.056.991-.056,3.959,0,4.95a3.551,3.551,0,0,0,.969,2.514,3.578,3.578,0,0,0,2.514.969c.991.056,3.959.056,4.95,0a3.551,3.551,0,0,0,2.514-.969,3.574,3.574,0,0,0,.969-2.514c.056-.991.056-3.957,0-4.947Zm-1.28,6.01a2.025,2.025,0,0,1-1.14,1.14A13.222,13.222,0,0,1,6,13.154a13.325,13.325,0,0,1-3.536-.241,2.025,2.025,0,0,1-1.14-1.14,13.222,13.222,0,0,1-.241-3.536A13.325,13.325,0,0,1,1.319,4.7,2.025,2.025,0,0,1,2.46,3.56,13.222,13.222,0,0,1,6,3.319a13.325,13.325,0,0,1,3.536.241,2.025,2.025,0,0,1,1.14,1.14,13.222,13.222,0,0,1,.241,3.536A13.214,13.214,0,0,1,10.673,11.773Z" transform="translate(4778.005 9436.763)"/>
  </g>
</svg>
