<svg xmlns="http://www.w3.org/2000/svg" width="48" height="48" viewBox="0 0 48 48">
  <defs>
    <style>
      .cls-1, .cls-4 {
        fill: #00abe0;
      }

      .cls-2 {
        fill: #fff;
      }

      .cls-3, .cls-4 {
        stroke: none;
      }
    </style>
  </defs>
  <g id="linkedin" transform="translate(-4690 -9421)">
    <g id="Trazado_189" data-name="Trazado 189" class="cls-1" transform="translate(4690 9421)">
      <path class="cls-3" d="M 24 47.5 C 20.82729911804199 47.5 17.74976921081543 46.87873077392578 14.85289001464844 45.65346145629883 C 12.05459022521973 44.46987915039063 9.541350364685059 42.77537155151367 7.382989883422852 40.61700820922852 C 5.224629878997803 38.45864868164063 3.530119895935059 35.94541168212891 2.346539974212646 33.14710998535156 C 1.121269941329956 30.25023078918457 0.5 27.17270088195801 0.5 24 C 0.5 20.82729911804199 1.121269941329956 17.74976921081543 2.346539974212646 14.85289001464844 C 3.530119895935059 12.05459022521973 5.224629878997803 9.541350364685059 7.382989883422852 7.382989883422852 C 9.541350364685059 5.224629878997803 12.05459022521973 3.530119895935059 14.85289001464844 2.346539974212646 C 17.74976921081543 1.121269941329956 20.82729911804199 0.5 24 0.5 C 27.17270088195801 0.5 30.25023078918457 1.121269941329956 33.14710998535156 2.346539974212646 C 35.94541168212891 3.530119895935059 38.45864868164063 5.224629878997803 40.61700820922852 7.382989883422852 C 42.77537155151367 9.541350364685059 44.46987915039063 12.05459022521973 45.65346145629883 14.85289001464844 C 46.87873077392578 17.74976921081543 47.5 20.82729911804199 47.5 24 C 47.5 27.17270088195801 46.87873077392578 30.25023078918457 45.65346145629883 33.14710998535156 C 44.46987915039063 35.94541168212891 42.77537155151367 38.45864868164063 40.61700820922852 40.61700820922852 C 38.45864868164063 42.77537155151367 35.94541168212891 44.46987915039063 33.14710998535156 45.65346145629883 C 30.25023078918457 46.87873077392578 27.17270088195801 47.5 24 47.5 Z"/>
      <path class="cls-4" d="M 24 1 C 20.89458084106445 1 17.8825798034668 1.607978820800781 15.04766845703125 2.807041168212891 C 12.3089714050293 3.965419769287109 9.849151611328125 5.623939514160156 7.736549377441406 7.736549377441406 C 5.623939514160156 9.849151611328125 3.965419769287109 12.3089714050293 2.807041168212891 15.04766845703125 C 1.607978820800781 17.8825798034668 1 20.89458084106445 1 24 C 1 27.10541915893555 1.607978820800781 30.1174201965332 2.807041168212891 32.95233154296875 C 3.965419769287109 35.6910285949707 5.623939514160156 38.15084838867188 7.736549377441406 40.26345062255859 C 9.849151611328125 42.37606048583984 12.3089714050293 44.03458023071289 15.04766845703125 45.19295883178711 C 17.8825798034668 46.39202117919922 20.89458084106445 47 24 47 C 27.10541915893555 47 30.1174201965332 46.39202117919922 32.95233154296875 45.19295883178711 C 35.6910285949707 44.03458023071289 38.15084838867188 42.37606048583984 40.26345062255859 40.26345062255859 C 42.37606048583984 38.15084838867188 44.03458023071289 35.6910285949707 45.19295883178711 32.95233154296875 C 46.39202117919922 30.1174201965332 47 27.10541915893555 47 24 C 47 20.89458084106445 46.39202117919922 17.8825798034668 45.19295883178711 15.04766845703125 C 44.03458023071289 12.3089714050293 42.37606048583984 9.849151611328125 40.26345062255859 7.736549377441406 C 38.15084838867188 5.623939514160156 35.6910285949707 3.965419769287109 32.95233154296875 2.807041168212891 C 30.1174201965332 1.607978820800781 27.10541915893555 1 24 1 M 24 0 C 37.25482940673828 0 48 10.74517059326172 48 24 C 48 37.25482940673828 37.25482940673828 48 24 48 C 10.74517059326172 48 0 37.25482940673828 0 24 C 0 10.74517059326172 10.74517059326172 0 24 0 Z"/>
    </g>
    <g id="Grupo_272" data-name="Grupo 272" transform="translate(61.892 -59.368)">
      <path id="Trazado_1117" data-name="Trazado 1117" class="cls-2" d="M259.027,507.912v3.944a.177.177,0,0,1-.177.177h-2.039a.177.177,0,0,1-.177-.177v-3.67c0-.966-.345-1.625-1.21-1.625a1.307,1.307,0,0,0-1.225.874,1.631,1.631,0,0,0-.079.582v3.836a.177.177,0,0,1-.177.177h-2.035a.176.176,0,0,1-.177-.177c0-.977.025-5.715,0-6.83a.175.175,0,0,1,.177-.179h2.031a.177.177,0,0,1,.177.177v.841c0,.008-.012.016-.016.024h.016v-.024a2.372,2.372,0,0,1,2.153-1.187c1.571,0,2.75,1.027,2.75,3.236ZM248.2,512.031h2.036a.177.177,0,0,0,.177-.177v-6.831a.177.177,0,0,0-.177-.177H248.2a.177.177,0,0,0-.177.177v6.832a.177.177,0,0,0,.177.177Z" transform="translate(4399.082 8997.643)"/>
      <g id="Grupo_2175" data-name="Grupo 2175" transform="translate(4647.222 9499.368)">
        <circle id="Elipse_63" data-name="Elipse 63" class="cls-2" cx="1.278" cy="1.278" r="1.278" transform="translate(0)"/>
      </g>
    </g>
  </g>
</svg>
