<svg id="Grupo_7" data-name="Grupo 7" xmlns="http://www.w3.org/2000/svg" width="141.932" height="56" viewBox="0 0 141.932 56">
  <defs>
    <style>
      .cls-1 {
        fill: #fff;
      }
    </style>
  </defs>
  <g id="Grupo_1" data-name="Grupo 1" transform="translate(84.175 29.008)">
    <path id="Trazado_1" data-name="Trazado 1" class="cls-1" d="M220.733,80.9a1.256,1.256,0,0,0-1.395,1.067,1.1,1.1,0,0,0,.738,1.395l.246.123c.451.246.574.451.492.943-.082.533-.328.7-.9.7a3.067,3.067,0,0,1-.984-.164l-.082-.041-.246.533.123.041a4.47,4.47,0,0,0,1.231.164,1.315,1.315,0,0,0,1.477-1.19,1.191,1.191,0,0,0-.779-1.518l-.246-.123c-.369-.205-.533-.328-.451-.779a.717.717,0,0,1,.82-.615,3.221,3.221,0,0,1,.861.123h.082l.205-.533-.123-.041C221.595,80.982,221.143,80.9,220.733,80.9Z" transform="translate(-218.6 -80.859)"/>
    <path id="Trazado_2" data-name="Trazado 2" class="cls-1" d="M229.044,84c-.943,0-1.395.492-1.641,1.764a1.706,1.706,0,0,0,.164,1.436,1.209,1.209,0,0,0,.9.328,2.956,2.956,0,0,0,1.108-.205l.082-.041-.041-.533-.123.041a2.79,2.79,0,0,1-.943.164c-.246,0-.41-.041-.492-.164-.123-.164-.123-.451-.041-.943h0a6.383,6.383,0,0,0,1.067.123c.615,0,.943-.123,1.067-.861a.973.973,0,0,0-.164-.779A1.184,1.184,0,0,0,229.044,84Zm.492,1.026h0c-.082.328-.123.41-.492.41a3.617,3.617,0,0,1-.861-.123c.164-.533.451-.779.9-.779.205,0,.369.041.41.164A.321.321,0,0,1,229.536,85.026Z" transform="translate(-223.753 -82.687)"/>
    <path id="Trazado_3" data-name="Trazado 3" class="cls-1" d="M236.906,84c-.861,0-1.395.533-1.6,1.518a1.544,1.544,0,0,0,.123,1.108.736.736,0,0,0,.287.205,1.488,1.488,0,0,0-.738.943,1.1,1.1,0,0,0,.123.738.965.965,0,0,0,.779.287,1.578,1.578,0,0,0,1.6-1.518l.574-2.995-.082-.041A3.117,3.117,0,0,0,236.906,84Zm0,3.282c-.082.451-.328.984-.9.984a.466.466,0,0,1-.328-.123.406.406,0,0,1-.041-.328c.082-.369.451-.7,1.067-.9.082-.041.246-.082.328-.123Zm.205-1.067a2.249,2.249,0,0,1-.492.164.792.792,0,0,1-.615-.041.741.741,0,0,1-.082-.7c.205-.943.615-1.067.984-1.067a2.079,2.079,0,0,1,.533.082Z" transform="translate(-228.25 -82.687)"/>
    <path id="Trazado_4" data-name="Trazado 4" class="cls-1" d="M245.946,86.989a2.145,2.145,0,0,1-.738.123.544.544,0,0,1-.41-.123c-.082-.082-.082-.246-.041-.492l.451-2.3h-.615l-.451,2.256a.9.9,0,0,0,.985,1.231,3.67,3.67,0,0,0,1.272-.246l.041-.041.615-3.2h-.615Z" transform="translate(-233.64 -82.805)"/>
    <path id="Trazado_5" data-name="Trazado 5" class="cls-1" d="M254.82,84.041A4.892,4.892,0,0,0,254.2,84a1.25,1.25,0,0,0-1.354,1.19l-.451,2.3h.615l.41-2.215c.082-.492.287-.656.738-.656a3.269,3.269,0,0,1,.451.041h.082l.205-.574Z" transform="translate(-238.535 -82.687)"/>
    <path id="Trazado_6" data-name="Trazado 6" class="cls-1" d="M260.3,81.979h.7l.164-.779h-.738Z" transform="translate(-243.194 -81.036)"/>
    <path id="Trazado_7" data-name="Trazado 7" class="cls-1" d="M258.6,87.6h.615l.656-3.4h-.615Z" transform="translate(-242.192 -82.805)"/>
    <path id="Trazado_8" data-name="Trazado 8" class="cls-1" d="M265.383,81.756h0a4.762,4.762,0,0,1-.123.656,2.854,2.854,0,0,0-.656-.082c-.861,0-1.354.574-1.6,1.8a1.638,1.638,0,0,0,.164,1.395,1.22,1.22,0,0,0,.943.328,3.221,3.221,0,0,0,1.149-.246l.041-.041.861-4.471h-.615Zm-.656,3.4a1.646,1.646,0,0,1-.615.123.511.511,0,0,1-.451-.164,1.228,1.228,0,0,1-.041-.985c.205-1.108.615-1.272.985-1.272a2.421,2.421,0,0,1,.574.082Z" transform="translate(-244.749 -80.977)"/>
    <path id="Trazado_9" data-name="Trazado 9" class="cls-1" d="M274.375,84.287l-.082-.041A2.858,2.858,0,0,0,273.185,84c-.943,0-1.436.533-1.682,1.846a1.638,1.638,0,0,0,.164,1.395.878.878,0,0,0,.738.287,1.713,1.713,0,0,0,.943-.287.436.436,0,0,0,.451.287,1.745,1.745,0,0,0,.451-.082l.082-.041v-.492l-.123.041a1.866,1.866,0,0,1-.246.041s-.041-.041,0-.287Zm-1.108,2.42a1.226,1.226,0,0,1-.779.287.4.4,0,0,1-.328-.123,1.439,1.439,0,0,1-.041-.985c.246-1.231.656-1.313.985-1.313a2.421,2.421,0,0,1,.574.082Z" transform="translate(-249.762 -82.687)"/>
    <path id="Trazado_10" data-name="Trazado 10" class="cls-1" d="M282.483,81.756h0a4.762,4.762,0,0,1-.123.656,2.854,2.854,0,0,0-.656-.082c-.861,0-1.354.574-1.6,1.8a1.638,1.638,0,0,0,.164,1.395,1.22,1.22,0,0,0,.943.328,3.221,3.221,0,0,0,1.149-.246l.041-.041.861-4.471h-.615Zm-.656,3.4a1.646,1.646,0,0,1-.615.123.511.511,0,0,1-.451-.164,1.228,1.228,0,0,1-.041-.985c.205-1.108.615-1.272.985-1.272a2.421,2.421,0,0,1,.574.082Z" transform="translate(-254.835 -80.977)"/>
    <path id="Trazado_11" data-name="Trazado 11" class="cls-1" d="M292.989,81.415a5.655,5.655,0,0,1,.9.082h.082l.205-.533-.123-.041a6.422,6.422,0,0,0-1.108-.123,1.007,1.007,0,0,0-1.108.943l-.738,3.815c-.082.492-.164.574-.41.656l-.492.123.041.533.123-.041a2.611,2.611,0,0,0,.369-.082c.574-.123.861-.328,1.026-1.19l.574-2.912H293.4l-.533,2.871h.615l.656-3.4h-1.682l.041-.287C292.579,81.456,292.743,81.415,292.989,81.415Z" transform="translate(-260.829 -80.8)"/>
    <path id="Trazado_12" data-name="Trazado 12" class="cls-1" d="M302.728,84a4.056,4.056,0,0,0-1.272.246h-.041l-.615,3.2h.615l.533-2.789a2.323,2.323,0,0,1,.738-.123.544.544,0,0,1,.41.123c.082.082.082.287.041.533l-.451,2.256h.615l.41-2.256a1.176,1.176,0,0,0-.123-.943C303.425,84,303.179,84,302.728,84Z" transform="translate(-267.081 -82.687)"/>
    <path id="Trazado_13" data-name="Trazado 13" class="cls-1" d="M312.675,84.287l-.082-.041A2.858,2.858,0,0,0,311.485,84c-.943,0-1.436.533-1.682,1.846a1.638,1.638,0,0,0,.164,1.395.878.878,0,0,0,.738.287,1.713,1.713,0,0,0,.943-.287.436.436,0,0,0,.451.287,1.745,1.745,0,0,0,.451-.082l.082-.041v-.492l-.123.041a1.864,1.864,0,0,1-.246.041s-.041-.041,0-.287Zm-1.066,2.42a1.226,1.226,0,0,1-.779.287.4.4,0,0,1-.328-.123,1.439,1.439,0,0,1-.041-.985c.246-1.231.656-1.313.984-1.313a2.421,2.421,0,0,1,.574.082Z" transform="translate(-272.351 -82.687)"/>
    <path id="Trazado_14" data-name="Trazado 14" class="cls-1" d="M320.028,84a4.056,4.056,0,0,0-1.272.246h-.041l-.615,3.2h.615l.533-2.789a2.324,2.324,0,0,1,.738-.123.544.544,0,0,1,.41.123c.082.082.082.287.041.533l-.451,2.256h.615l.41-2.256a1.176,1.176,0,0,0-.123-.943C320.725,84,320.479,84,320.028,84Z" transform="translate(-277.284 -82.687)"/>
    <path id="Trazado_15" data-name="Trazado 15" class="cls-1" d="M328.782,84c-.943,0-1.436.533-1.682,1.764a1.91,1.91,0,0,0,.123,1.436,1.246,1.246,0,0,0,.943.328,2.22,2.22,0,0,0,.779-.123l.082-.041-.041-.533-.123.041a1.813,1.813,0,0,1-.615.082c-.246,0-.41-.041-.492-.164-.123-.164-.123-.451-.041-.985.164-.9.451-1.231,1.026-1.231a2.138,2.138,0,0,1,.574.082l.082.041.205-.533-.123-.041A2.374,2.374,0,0,0,328.782,84Z" transform="translate(-282.552 -82.687)"/>
    <path id="Trazado_16" data-name="Trazado 16" class="cls-1" d="M333.9,87.6h.615l.656-3.4h-.615Z" transform="translate(-286.603 -82.805)"/>
    <path id="Trazado_17" data-name="Trazado 17" class="cls-1" d="M335.6,81.979h.7l.164-.779h-.7Z" transform="translate(-287.606 -81.036)"/>
    <path id="Trazado_18" data-name="Trazado 18" class="cls-1" d="M339.944,84c-.943,0-1.395.492-1.641,1.764a1.706,1.706,0,0,0,.164,1.436,1.209,1.209,0,0,0,.9.328,2.957,2.957,0,0,0,1.108-.205l.082-.041-.041-.533-.123.041a2.79,2.79,0,0,1-.944.164c-.246,0-.41-.041-.492-.164-.123-.164-.123-.451-.041-.943h0a6.383,6.383,0,0,0,1.067.123c.615,0,.943-.123,1.067-.861a.973.973,0,0,0-.164-.779A1.246,1.246,0,0,0,339.944,84Zm.492,1.026h0c-.082.328-.123.41-.492.41a3.616,3.616,0,0,1-.861-.123c.164-.533.451-.779.9-.779.205,0,.369.041.41.164A.321.321,0,0,1,340.436,85.026Z" transform="translate(-289.16 -82.687)"/>
    <path id="Trazado_19" data-name="Trazado 19" class="cls-1" d="M348.52,84.041A4.893,4.893,0,0,0,347.9,84a1.25,1.25,0,0,0-1.354,1.19l-.451,2.3h.615l.41-2.215c.082-.492.287-.656.738-.656a3.269,3.269,0,0,1,.451.041h.082l.205-.574Z" transform="translate(-293.798 -82.687)"/>
    <path id="Trazado_20" data-name="Trazado 20" class="cls-1" d="M354.97,87.012a1.864,1.864,0,0,1-.246.041s-.041-.041,0-.287l.451-2.379-.082-.041a2.858,2.858,0,0,0-1.108-.246c-.944,0-1.436.533-1.682,1.846a1.638,1.638,0,0,0,.164,1.395.878.878,0,0,0,.738.287,1.713,1.713,0,0,0,.943-.287.436.436,0,0,0,.451.287,1.745,1.745,0,0,0,.451-.082l.082-.041v-.492Zm-.9-.246a1.226,1.226,0,0,1-.779.287.4.4,0,0,1-.328-.123,1.439,1.439,0,0,1-.041-.985c.246-1.231.656-1.313.984-1.313a2.421,2.421,0,0,1,.574.082Z" transform="translate(-297.417 -82.746)"/>
  </g>
  <g id="Grupo_2" data-name="Grupo 2" transform="translate(51.429 10.719)">
    <path id="Trazado_21" data-name="Trazado 21" class="cls-1" d="M143.46,55.2a4.408,4.408,0,0,1-3.118-1.272,5.49,5.49,0,0,1-1.518-4.923c.492-4.307,4.266-9.968,7.056-11.568,2.543-1.477,5.087-1.641,6.85-.369,1.641,1.19,2.256,3.364,1.682,6.03-.943,4.389-5.21,10.542-9.312,11.855A5.9,5.9,0,0,1,143.46,55.2Zm6.481-16.449a5.532,5.532,0,0,0-2.789.9h0c-2.01,1.149-5.415,5.948-5.825,9.681a3.144,3.144,0,0,0,.738,2.748,2.125,2.125,0,0,0,2.256.451c3.118-.985,6.851-6.4,7.589-9.968.328-1.641.082-2.871-.7-3.446A1.957,1.957,0,0,0,149.941,38.751Z" transform="translate(-138.772 -36.214)"/>
  </g>
  <g id="Grupo_3" data-name="Grupo 3" transform="translate(35.401 14.61)">
    <path id="Trazado_22" data-name="Trazado 22" class="cls-1" d="M103.433,64.488a.942.942,0,0,1-.574-.164c-1.026-.533-.82-1.231-.082-3.9.369-1.272.861-3.036,1.518-5.21.164-.533.328-1.108.492-1.641a18.249,18.249,0,0,1-3.9,2.707L99.7,54.027a20.2,20.2,0,0,0,6.974-6.6,1.269,1.269,0,0,1,2.3,1.026c-.615,1.928-1.231,3.938-1.764,5.866a30.626,30.626,0,0,1,6.933-7.1c.779-.533,1.559-1.026,2.338-1.518l1.272,2.215a23.774,23.774,0,0,0-2.133,1.395c-5.743,4.061-9.189,10.953-10.5,13.578A6.528,6.528,0,0,1,104.5,64,1.531,1.531,0,0,1,103.433,64.488Z" transform="translate(-99.7 -45.7)"/>
  </g>
  <g id="Grupo_4" data-name="Grupo 4" transform="translate(118.961 0)">
    <path id="Trazado_23" data-name="Trazado 23" class="cls-1" d="M306.6,30.806a1.263,1.263,0,0,1-.533-.123c-1.026-.492-.861-1.231-.328-4.02.287-1.354.7-3.241,1.19-5.62.123-.533.246-1.108.369-1.641-.656.943-1.272,1.764-1.846,2.543L303.4,20.428c.779-1.026,1.6-2.215,2.543-3.528,1.682-2.379,2.995-4.348,2.995-4.389a1.273,1.273,0,0,1,2.3.985c-.574,2.461-1.149,5.046-1.682,7.384.451-.7.9-1.395,1.395-2.133,4.8-6.768,10.132-9.64,15.383-8.368l-.615,2.461c-4.225-1.026-8.491,1.436-12.675,7.343a49.611,49.611,0,0,0-5.251,9.722,1.228,1.228,0,0,1-.164.328A1.132,1.132,0,0,1,306.6,30.806Z" transform="translate(-303.4 -10.084)"/>
  </g>
  <g id="Grupo_5" data-name="Grupo 5" transform="translate(100.214 3.347)">
    <path id="Trazado_24" data-name="Trazado 24" class="cls-1" d="M264.715,37.136h-.287a4.563,4.563,0,0,1-4.512-3.938h0c-.574.123-1.108.205-1.682.328h-.082l-.451-2.5h.082c.738-.123,1.436-.287,2.174-.41.7-4.471,4.389-9.8,8.327-11.486,4.471-1.887,6.112-.287,6.6.492,1.19,1.887,0,4.84-3.077,7.507a23.621,23.621,0,0,1-9.394,5.456.37.37,0,0,0,.041.205,2,2,0,0,0,2.174,1.8c2.133.123,7.056-2.954,11.281-8.2l1.969,1.6C272.755,34.347,267.545,37.136,264.715,37.136Zm7.261-16.408a7.145,7.145,0,0,0-2.707.7c-2.913,1.231-5.579,5.128-6.522,8.368a22.039,22.039,0,0,0,7.384-4.594c2.543-2.256,2.789-3.938,2.584-4.266C272.673,20.851,272.426,20.728,271.975,20.728Z" transform="translate(-257.7 -18.243)"/>
  </g>
  <g id="Grupo_6" data-name="Grupo 6" transform="translate(73.549 6.657)">
    <path id="Trazado_25" data-name="Trazado 25" class="cls-1" d="M192.7,66.18c-.123-4.225,5.784-29.412,18.541-38.108,1.682-1.19,5.784-2.584,7.958-1.149a3.206,3.206,0,0,1,1.231,3.651C219.32,36.03,213.7,41.9,208.942,44.439c-2.3,1.231-4.184,1.559-5.62.985l.943-2.338c.492.205,1.682.082,3.446-.861,4.184-2.215,9.271-7.63,10.173-12.142.082-.369.123-.861-.123-1.026-.861-.574-3.774.205-5.128,1.108C200.86,38.2,195.118,62.283,195.2,66.139Z" transform="translate(-192.695 -26.313)"/>
  </g>
  <path id="Trazado_26" data-name="Trazado 26" class="cls-1" d="M174.108,37.017c3.4-3.323,6.686-6.071,9.025-7.22l-1.108-2.3c-2.5,1.19-5.948,4.061-9.476,7.466a52.521,52.521,0,0,1-3.651-5.948l-2.256,1.149a57.569,57.569,0,0,0,4.061,6.6c-7.138,7.1-14.152,15.506-14.6,16.08l1.969,1.641c.123-.123,7.179-8.614,14.234-15.67a15.273,15.273,0,0,0,4.512,3.938l1.149-2.256A13.559,13.559,0,0,1,174.108,37.017Z" transform="translate(-97.563 -20.356)"/>
  <path id="Trazado_27" data-name="Trazado 27" class="cls-1" d="M40.8,20.32a17.724,17.724,0,0,0-8.163-.9,16.752,16.752,0,0,0-11.855,7.1c-6.358,8.819,1.846,18.254,1.928,18.336L24.6,43.169c-.082-.082-6.933-8-1.764-15.178,5.784-8,14.85-6.235,16.983-5.333,6.071,2.625,7.466,8.778,3.856,17.352A23.238,23.238,0,0,1,27.757,53.465c-.738.205-1.477.328-2.174.451,8.04-15.1,10.542-22.931,10.665-23.341l-2.42-.738c-.041.123-2.707,8.45-11.24,24.325a5.9,5.9,0,0,1-3.241-.779l-1.559,1.969a6.749,6.749,0,0,0,3.487,1.231C19.02,60.685,16.436,65.2,13.4,70.2l2.174,1.313c3.364-5.5,6.194-10.46,8.573-14.85a20.527,20.527,0,0,0,4.266-.7,25.977,25.977,0,0,0,17.6-14.932C51.878,26.884,44.33,21.838,40.8,20.32Z" transform="translate(-13.4 -15.514)"/>
</svg>
