<svg xmlns="http://www.w3.org/2000/svg" width="32" height="32" viewBox="0 0 32 32">
  <defs>
    <style>
      .cls-1 {
        fill: #fff;
      }
    </style>
  </defs>
  <g id="Grupo_570" data-name="Grupo 570" transform="translate(-52.935 -52.946)">
    <g id="Grupo_1" data-name="Grupo 1" transform="translate(56.741 55.959)">
      <path id="Trazado_1" data-name="Trazado 1" class="cls-1" d="M76.571,75.822H75.155v-4.3h-1.1V70.264h3.616v1.258h-1.1Z" transform="translate(-74.055 -70.156)"/>
      <path id="Trazado_2" data-name="Trazado 2" class="cls-1" d="M128.374,75.437a2.84,2.84,0,0,1-2.075-.829,2.757,2.757,0,0,1-.842-2.046A2.8,2.8,0,0,1,126.3,70.5a2.831,2.831,0,0,1,2.079-.833,2.877,2.877,0,0,1,2.1.837,2.892,2.892,0,0,1,0,4.1A2.885,2.885,0,0,1,128.374,75.437Zm.016-4.516a1.419,1.419,0,0,0-1.083.464,1.624,1.624,0,0,0-.433,1.152,1.651,1.651,0,0,0,.437,1.173,1.437,1.437,0,0,0,1.1.468,1.4,1.4,0,0,0,1.066-.468,1.628,1.628,0,0,0,.433-1.148,1.655,1.655,0,0,0-.437-1.169A1.413,1.413,0,0,0,128.391,70.921Z" transform="translate(-116.196 -69.663)"/>
    </g>
    <path id="Trazado_3" data-name="Trazado 3" class="cls-1" d="M131.7,133.87V132.9h1.283v-1.283h1.05V132.9h1.283v.975h-1.283v1.283h-1.05V133.87Z" transform="translate(-64.571 -64.489)"/>
    <path id="Trazado_4" data-name="Trazado 4" class="cls-1" d="M193.879,131.854h-3.058V126.3h1.416v4.3h1.641Z" transform="translate(-113.04 -60.131)"/>
    <g id="Grupo_2" data-name="Grupo 2" transform="translate(56.245 76.369)">
      <path id="Trazado_5" data-name="Trazado 5" class="cls-1" d="M72.719,189.079H71.3v-5.558h1.416v2.508l1.583-2.508h1.492l-1.85,2.775,1.966,2.783H74.244l-1.524-2.4Z" transform="translate(-71.303 -183.413)"/>
      <path id="Trazado_6" data-name="Trazado 6" class="cls-1" d="M128.372,188.7a2.841,2.841,0,0,1-2.075-.829,2.757,2.757,0,0,1-.841-2.046,2.8,2.8,0,0,1,.838-2.066,2.83,2.83,0,0,1,2.079-.833,2.88,2.88,0,0,1,2.1.837,2.892,2.892,0,0,1,0,4.1A2.886,2.886,0,0,1,128.372,188.7Zm.017-4.516a1.421,1.421,0,0,0-1.083.464,1.624,1.624,0,0,0-.433,1.152,1.653,1.653,0,0,0,.438,1.173,1.437,1.437,0,0,0,1.1.468,1.394,1.394,0,0,0,1.066-.468,1.627,1.627,0,0,0,.433-1.148,1.655,1.655,0,0,0-.437-1.169A1.412,1.412,0,0,0,128.389,184.179Z" transform="translate(-115.698 -182.921)"/>
    </g>
    <path id="Trazado_7" data-name="Trazado 7" class="cls-1" d="M55.714,68.61l-.533-.908,2.857-1.679L59.5,67.478l1.825-1.232.589.873-2.541,1.715-1.5-1.493Zm3.789,1.9-1.465-1.455-2.857,1.679.533.908,2.158-1.268,1.5,1.493,2.541-1.715-.589-.872ZM52.935,52.946v32h32v-32ZM73.707,64.174v9.541H64.165V64.174Zm0-10.386v9.541H64.165V53.788Zm-19.93,0H63.32v9.541H53.777ZM63.32,64.174v9.541H53.777V64.174Zm0,19.93H53.777V74.56H63.32Zm10.387,0H64.165V74.56h9.542Zm10.386,0H74.55V74.56h9.543Zm0-10.389H74.55V64.174h9.543ZM74.55,63.329V53.788h9.543v9.541Zm4.032,13.582a.737.737,0,1,1,.737.737A.737.737,0,0,1,78.583,76.911Zm.737,1.789a.737.737,0,1,0,.737.737A.737.737,0,0,0,79.319,78.7Zm0,2.526a.737.737,0,1,0,.737.737A.737.737,0,0,0,79.319,81.227Zm-2.066-24.3H78.96V59a1.288,1.288,0,0,1-.279.865.909.909,0,0,1-.728.329h-.7V59.31h.339q.427,0,.427-.373v-.328h-.766Zm2.441,0h1.7V59a1.3,1.3,0,0,1-.274.865.893.893,0,0,1-.722.329h-.7V59.31h.34q.427,0,.427-.373v-.328h-.766Z" transform="translate(0 0)"/>
  </g>
</svg>
